<svg width="1440" height="415" viewBox="0 0 1440 415" fill="none" xmlns="http://www.w3.org/2000/svg">
<path d="M94.2581 30.9289C230.281 21.8461 322.552 14.5479 456.603 1.77461C501.803 -2.53244 574.796 2.01732 595.167 4.70665C629.901 9.29367 675.404 20.7775 698.663 30.8279L720.046 40.0671L740.954 31.0576C765.618 20.4322 804.263 10.4518 839.886 5.5097C859.316 2.81385 877.77 1.78112 916.774 1.20612C964.994 0.49754 972.022 0.807034 1033.1 6.32416C1136.63 15.6758 1231.16 23.1492 1333.93 30.1047C1386.49 33.6622 1439.42 37.5785 1440 37.8554V415H0V37.0234C0.619264 36.7286 48.3299 33.9961 94.2581 30.9289Z" fill="#000F1F"/>
<path d="M94.2581 38.3327C230.281 29.4249 322.552 22.2675 456.603 9.7404C501.803 5.51638 574.796 9.97843 595.167 12.6159C629.901 17.1145 675.404 28.377 698.663 38.2336L720.046 47.2947L740.954 38.4589C765.618 28.0383 804.263 18.2503 839.886 13.4035C859.316 10.7596 877.77 9.74679 916.774 9.18287C964.994 8.48795 972.022 8.79148 1033.1 14.2023C1136.63 23.3736 1231.16 30.703 1333.93 37.5243C1386.49 41.0133 1439.42 44.8541 1440 45.1257V415H0V44.3097C0.619264 44.0206 48.3299 41.3408 94.2581 38.3327Z" fill="#001933"/>
</svg>
