<svg width="878" height="815" viewBox="0 0 878 815" fill="none" xmlns="http://www.w3.org/2000/svg">
<path d="M1.7365 17V5.64H2.8565V16.008H9.4165V17H1.7365ZM10.8406 17V8.664H11.9286V17H10.8406ZM10.8406 6.92V5.32H11.9286V6.92H10.8406ZM16.805 17L13.429 8.664H14.565L17.413 15.912L20.277 8.664H21.349L17.973 17H16.805ZM27.0163 9.624C26.2909 9.64533 25.6509 9.848 25.0963 10.232C24.5523 10.616 24.1683 11.144 23.9443 11.816V17H22.8563V8.664H23.8803V10.664C24.1683 10.0773 24.5469 9.60267 25.0163 9.24C25.4963 8.87733 26.0029 8.67467 26.5363 8.632C26.6429 8.62133 26.7336 8.616 26.8083 8.616C26.8936 8.616 26.9629 8.62133 27.0163 8.632V9.624ZM31.752 17.16C31.1547 17.16 30.6 17.048 30.088 16.824C29.5867 16.5893 29.1493 16.2747 28.776 15.88C28.4133 15.4747 28.1307 15.016 27.928 14.504C27.7253 13.9813 27.624 13.432 27.624 12.856C27.624 12.2587 27.7253 11.704 27.928 11.192C28.1307 10.6693 28.4187 10.2107 28.792 9.816C29.1653 9.41067 29.6027 9.096 30.104 8.872C30.616 8.63733 31.1707 8.52 31.768 8.52C32.3653 8.52 32.9147 8.63733 33.416 8.872C33.9173 9.096 34.3547 9.41067 34.728 9.816C35.1013 10.2107 35.3893 10.6693 35.592 11.192C35.7947 11.704 35.896 12.2587 35.896 12.856C35.896 13.432 35.7947 13.9813 35.592 14.504C35.3893 15.016 35.1013 15.4747 34.728 15.88C34.3653 16.2747 33.928 16.5893 33.416 16.824C32.9147 17.048 32.36 17.16 31.752 17.16ZM28.728 12.872C28.728 13.4907 28.8613 14.056 29.128 14.568C29.4053 15.0693 29.7733 15.4693 30.232 15.768C30.6907 16.056 31.1973 16.2 31.752 16.2C32.3067 16.2 32.8133 16.0507 33.272 15.752C33.7307 15.4533 34.0987 15.048 34.376 14.536C34.6533 14.0133 34.792 13.448 34.792 12.84C34.792 12.2213 34.6533 11.656 34.376 11.144C34.0987 10.632 33.7307 10.2267 33.272 9.928C32.8133 9.62933 32.3067 9.48 31.752 9.48C31.1973 9.48 30.6907 9.63467 30.232 9.944C29.784 10.2533 29.4213 10.664 29.144 11.176C28.8667 11.6773 28.728 12.2427 28.728 12.872ZM45.3938 17.16C44.7964 17.16 44.2418 17.048 43.7298 16.824C43.2178 16.5893 42.7751 16.2747 42.4018 15.88C42.0284 15.4747 41.7351 15.0107 41.5218 14.488C41.3191 13.9653 41.2178 13.4053 41.2178 12.808C41.2178 12.0293 41.3938 11.3147 41.7458 10.664C42.1084 10.0133 42.6044 9.496 43.2338 9.112C43.8631 8.71733 44.5778 8.52 45.3778 8.52C46.1991 8.52 46.9138 8.71733 47.5218 9.112C48.1404 9.50667 48.6258 10.0293 48.9778 10.68C49.3298 11.32 49.5058 12.024 49.5058 12.792C49.5058 12.8773 49.5058 12.9627 49.5058 13.048C49.5058 13.1227 49.5004 13.1813 49.4898 13.224H42.3538C42.4071 13.8213 42.5724 14.3547 42.8498 14.824C43.1378 15.2827 43.5058 15.6507 43.9538 15.928C44.4124 16.1947 44.9084 16.328 45.4418 16.328C45.9858 16.328 46.4978 16.1893 46.9778 15.912C47.4684 15.6347 47.8098 15.272 48.0018 14.824L48.9458 15.08C48.7751 15.4747 48.5138 15.832 48.1618 16.152C47.8098 16.472 47.3938 16.7227 46.9138 16.904C46.4444 17.0747 45.9378 17.16 45.3938 17.16ZM42.3218 12.44H48.4818C48.4391 11.832 48.2738 11.2987 47.9858 10.84C47.7084 10.3813 47.3404 10.024 46.8818 9.768C46.4338 9.50133 45.9378 9.368 45.3938 9.368C44.8498 9.368 44.3538 9.50133 43.9058 9.768C43.4578 10.024 43.0898 10.3867 42.8018 10.856C42.5244 11.3147 42.3644 11.8427 42.3218 12.44ZM63.5844 17H62.4964V12.344C62.4964 11.3733 62.3417 10.6587 62.0324 10.2C61.723 9.74133 61.2644 9.512 60.6564 9.512C60.027 9.512 59.4617 9.736 58.9604 10.184C58.4697 10.632 58.123 11.208 57.9204 11.912V17H56.8324V12.344C56.8324 11.3627 56.683 10.648 56.3844 10.2C56.0857 9.74133 55.627 9.512 55.0084 9.512C54.3897 9.512 53.8297 9.73067 53.3284 10.168C52.827 10.6053 52.475 11.1813 52.2724 11.896V17H51.1844V8.664H52.1764V10.552C52.5284 9.90133 52.9764 9.4 53.5204 9.048C54.075 8.696 54.6884 8.52 55.3604 8.52C56.0537 8.52 56.6137 8.71733 57.0404 9.112C57.467 9.50667 57.7284 10.024 57.8244 10.664C58.2084 9.96 58.667 9.42667 59.2004 9.064C59.7444 8.70133 60.3577 8.52 61.0404 8.52C61.5097 8.52 61.9044 8.60533 62.2244 8.776C62.555 8.94667 62.8164 9.192 63.0084 9.512C63.211 9.82133 63.355 10.2 63.4404 10.648C63.5364 11.0853 63.5844 11.576 63.5844 12.12V17ZM73.5816 17.16C72.9736 17.16 72.4136 17.048 71.9016 16.824C71.4003 16.5893 70.9576 16.2693 70.5736 15.864C70.2003 15.4587 69.907 14.9947 69.6936 14.472C69.491 13.9493 69.3896 13.3947 69.3896 12.808C69.3896 12.0187 69.5656 11.2987 69.9176 10.648C70.2696 9.99733 70.7603 9.48 71.3896 9.096C72.019 8.712 72.7443 8.52 73.5656 8.52C74.3443 8.52 75.0323 8.70133 75.6296 9.064C76.227 9.416 76.6696 9.896 76.9576 10.504L75.9016 10.84C75.667 10.4133 75.3363 10.0827 74.9096 9.848C74.4936 9.60267 74.0296 9.48 73.5176 9.48C72.963 9.48 72.4563 9.624 71.9976 9.912C71.539 10.2 71.171 10.5947 70.8936 11.096C70.627 11.5973 70.4936 12.168 70.4936 12.808C70.4936 13.4373 70.6323 14.008 70.9096 14.52C71.187 15.032 71.555 15.4427 72.0136 15.752C72.4723 16.0507 72.979 16.2 73.5336 16.2C73.8963 16.2 74.243 16.136 74.5736 16.008C74.915 15.88 75.2083 15.7093 75.4536 15.496C75.7096 15.272 75.8803 15.032 75.9656 14.776L77.0376 15.096C76.8883 15.4907 76.6376 15.848 76.2856 16.168C75.9443 16.4773 75.539 16.7227 75.0696 16.904C74.611 17.0747 74.115 17.16 73.5816 17.16ZM78.0749 14.6C78.0749 14.0773 78.2242 13.6293 78.5229 13.256C78.8215 12.872 79.2322 12.5787 79.7549 12.376C80.2882 12.1627 80.9015 12.056 81.5949 12.056C82.0002 12.056 82.4215 12.088 82.8589 12.152C83.2962 12.216 83.6855 12.312 84.0269 12.44V11.736C84.0269 11.032 83.8189 10.472 83.4029 10.056C82.9869 9.64 82.4109 9.432 81.6749 9.432C81.2269 9.432 80.7842 9.51733 80.3469 9.688C79.9202 9.848 79.4722 10.088 79.0029 10.408L78.5869 9.64C79.1309 9.26667 79.6642 8.98933 80.1869 8.808C80.7095 8.616 81.2429 8.52 81.7869 8.52C82.8109 8.52 83.6215 8.81333 84.2189 9.4C84.8162 9.98667 85.1149 10.7973 85.1149 11.832V15.688C85.1149 15.8373 85.1469 15.9493 85.2109 16.024C85.2749 16.088 85.3762 16.1253 85.5149 16.136V17C85.3975 17.0107 85.2962 17.0213 85.2109 17.032C85.1255 17.0427 85.0615 17.0427 85.0189 17.032C84.7522 17.0213 84.5495 16.936 84.4109 16.776C84.2722 16.616 84.1975 16.4453 84.1869 16.264L84.1709 15.656C83.7975 16.136 83.3122 16.5093 82.7149 16.776C82.1175 17.032 81.5095 17.16 80.8909 17.16C80.3575 17.16 79.8722 17.048 79.4349 16.824C79.0082 16.5893 78.6722 16.28 78.4269 15.896C78.1922 15.5013 78.0749 15.0693 78.0749 14.6ZM83.6589 15.24C83.7762 15.0907 83.8669 14.9467 83.9309 14.808C83.9949 14.6693 84.0269 14.5467 84.0269 14.44V13.224C83.6642 13.0853 83.2855 12.9787 82.8909 12.904C82.5069 12.8293 82.1175 12.792 81.7229 12.792C80.9442 12.792 80.3149 12.9467 79.8349 13.256C79.3549 13.5653 79.1149 13.9867 79.1149 14.52C79.1149 14.8293 79.1949 15.1227 79.3549 15.4C79.5149 15.6667 79.7495 15.8907 80.0589 16.072C80.3682 16.2427 80.7309 16.328 81.1469 16.328C81.6695 16.328 82.1549 16.2267 82.6029 16.024C83.0615 15.8213 83.4135 15.56 83.6589 15.24ZM91.7216 17.16C91.0283 17.16 90.4043 16.9787 89.8496 16.616C89.3056 16.2533 88.8736 15.8053 88.5536 15.272V20.408H87.4656V8.664H88.4416V10.28C88.7723 9.75733 89.215 9.336 89.7696 9.016C90.3243 8.68533 90.9163 8.52 91.5456 8.52C92.1216 8.52 92.6496 8.64267 93.1296 8.888C93.6096 9.12267 94.0256 9.44267 94.3776 9.848C94.7296 10.2533 95.0016 10.7173 95.1936 11.24C95.3963 11.752 95.4976 12.2853 95.4976 12.84C95.4976 13.6187 95.3376 14.3387 95.0176 15C94.7083 15.6507 94.271 16.1733 93.7056 16.568C93.1403 16.9627 92.479 17.16 91.7216 17.16ZM91.4176 16.2C91.8763 16.2 92.287 16.1093 92.6496 15.928C93.0123 15.736 93.3216 15.48 93.5776 15.16C93.8443 14.84 94.047 14.4827 94.1856 14.088C94.3243 13.6827 94.3936 13.2667 94.3936 12.84C94.3936 12.392 94.3136 11.9653 94.1536 11.56C94.0043 11.1547 93.7856 10.7973 93.4976 10.488C93.2096 10.1787 92.879 9.93333 92.5056 9.752C92.1323 9.57067 91.727 9.48 91.2896 9.48C91.0123 9.48 90.7243 9.53333 90.4256 9.64C90.127 9.74667 89.839 9.90133 89.5616 10.104C89.295 10.296 89.071 10.5147 88.8896 10.76C88.7083 11.0053 88.5963 11.2667 88.5536 11.544V14.104C88.7243 14.4987 88.9536 14.856 89.2416 15.176C89.5296 15.4853 89.8603 15.736 90.2336 15.928C90.6176 16.1093 91.0123 16.2 91.4176 16.2ZM96.6686 14.6C96.6686 14.0773 96.818 13.6293 97.1166 13.256C97.4153 12.872 97.826 12.5787 98.3486 12.376C98.882 12.1627 99.4953 12.056 100.189 12.056C100.594 12.056 101.015 12.088 101.453 12.152C101.89 12.216 102.279 12.312 102.621 12.44V11.736C102.621 11.032 102.413 10.472 101.997 10.056C101.581 9.64 101.005 9.432 100.269 9.432C99.8206 9.432 99.378 9.51733 98.9406 9.688C98.514 9.848 98.066 10.088 97.5966 10.408L97.1806 9.64C97.7246 9.26667 98.258 8.98933 98.7806 8.808C99.3033 8.616 99.8366 8.52 100.381 8.52C101.405 8.52 102.215 8.81333 102.813 9.4C103.41 9.98667 103.709 10.7973 103.709 11.832V15.688C103.709 15.8373 103.741 15.9493 103.805 16.024C103.869 16.088 103.97 16.1253 104.109 16.136V17C103.991 17.0107 103.89 17.0213 103.805 17.032C103.719 17.0427 103.655 17.0427 103.613 17.032C103.346 17.0213 103.143 16.936 103.005 16.776C102.866 16.616 102.791 16.4453 102.781 16.264L102.765 15.656C102.391 16.136 101.906 16.5093 101.309 16.776C100.711 17.032 100.103 17.16 99.4846 17.16C98.9513 17.16 98.466 17.048 98.0286 16.824C97.602 16.5893 97.266 16.28 97.0206 15.896C96.786 15.5013 96.6686 15.0693 96.6686 14.6ZM102.253 15.24C102.37 15.0907 102.461 14.9467 102.525 14.808C102.589 14.6693 102.621 14.5467 102.621 14.44V13.224C102.258 13.0853 101.879 12.9787 101.485 12.904C101.101 12.8293 100.711 12.792 100.317 12.792C99.538 12.792 98.9086 12.9467 98.4286 13.256C97.9486 13.5653 97.7086 13.9867 97.7086 14.52C97.7086 14.8293 97.7886 15.1227 97.9486 15.4C98.1086 15.6667 98.3433 15.8907 98.6526 16.072C98.962 16.2427 99.3246 16.328 99.7406 16.328C100.263 16.328 100.749 16.2267 101.197 16.024C101.655 15.8213 102.007 15.56 102.253 15.24ZM109.578 12.856C109.578 12.0667 109.738 11.3467 110.058 10.696C110.388 10.0347 110.842 9.50667 111.418 9.112C111.994 8.71733 112.65 8.52 113.386 8.52C114.079 8.52 114.698 8.70667 115.242 9.08C115.796 9.44267 116.228 9.88533 116.538 10.408V5.32H117.626V15.688C117.626 15.8373 117.658 15.9493 117.722 16.024C117.786 16.088 117.882 16.1253 118.01 16.136V17C117.796 17.032 117.631 17.0427 117.514 17.032C117.29 17.0213 117.092 16.9307 116.922 16.76C116.751 16.5893 116.666 16.4027 116.666 16.2V15.384C116.335 15.928 115.887 16.36 115.322 16.68C114.756 17 114.17 17.16 113.562 17.16C112.986 17.16 112.452 17.0427 111.962 16.808C111.482 16.5733 111.06 16.2533 110.698 15.848C110.346 15.4427 110.068 14.984 109.866 14.472C109.674 13.9493 109.578 13.4107 109.578 12.856ZM116.538 14.136V11.56C116.399 11.176 116.175 10.8293 115.866 10.52C115.556 10.2 115.204 9.94933 114.81 9.768C114.426 9.576 114.042 9.48 113.658 9.48C113.21 9.48 112.804 9.576 112.442 9.768C112.079 9.94933 111.764 10.2 111.498 10.52C111.242 10.84 111.044 11.2027 110.906 11.608C110.767 12.0133 110.698 12.4293 110.698 12.856C110.698 13.304 110.772 13.7307 110.922 14.136C111.082 14.5413 111.306 14.904 111.594 15.224C111.882 15.5333 112.212 15.7733 112.586 15.944C112.959 16.1147 113.364 16.2 113.802 16.2C114.079 16.2 114.367 16.1467 114.666 16.04C114.964 15.9333 115.247 15.7893 115.514 15.608C115.791 15.416 116.02 15.192 116.202 14.936C116.383 14.68 116.495 14.4133 116.538 14.136ZM120.011 13.56V8.664H121.099V13.368C121.099 14.3173 121.259 15.0267 121.579 15.496C121.909 15.9653 122.395 16.2 123.035 16.2C123.461 16.2 123.872 16.1093 124.267 15.928C124.672 15.736 125.029 15.4693 125.339 15.128C125.648 14.776 125.883 14.3707 126.043 13.912V8.664H127.131V15.688C127.131 15.8373 127.163 15.9493 127.227 16.024C127.291 16.088 127.387 16.1253 127.515 16.136V17C127.387 17.0107 127.285 17.016 127.211 17.016C127.136 17.0267 127.067 17.032 127.003 17.032C126.789 17.0107 126.603 16.9253 126.443 16.776C126.293 16.6267 126.213 16.4453 126.203 16.232L126.171 15.112C125.808 15.752 125.312 16.2533 124.683 16.616C124.064 16.9787 123.392 17.16 122.667 17.16C121.792 17.16 121.131 16.856 120.683 16.248C120.235 15.64 120.011 14.744 120.011 13.56ZM133.751 9.624C133.025 9.64533 132.385 9.848 131.831 10.232C131.287 10.616 130.903 11.144 130.679 11.816V17H129.591V8.664H130.615V10.664C130.903 10.0773 131.281 9.60267 131.751 9.24C132.231 8.87733 132.737 8.67467 133.271 8.632C133.377 8.62133 133.468 8.616 133.543 8.616C133.628 8.616 133.697 8.62133 133.751 8.632V9.624ZM134.497 14.6C134.497 14.0773 134.646 13.6293 134.945 13.256C135.243 12.872 135.654 12.5787 136.177 12.376C136.71 12.1627 137.323 12.056 138.017 12.056C138.422 12.056 138.843 12.088 139.281 12.152C139.718 12.216 140.107 12.312 140.449 12.44V11.736C140.449 11.032 140.241 10.472 139.825 10.056C139.409 9.64 138.833 9.432 138.097 9.432C137.649 9.432 137.206 9.51733 136.769 9.688C136.342 9.848 135.894 10.088 135.425 10.408L135.009 9.64C135.553 9.26667 136.086 8.98933 136.609 8.808C137.131 8.616 137.665 8.52 138.209 8.52C139.233 8.52 140.043 8.81333 140.641 9.4C141.238 9.98667 141.537 10.7973 141.537 11.832V15.688C141.537 15.8373 141.569 15.9493 141.633 16.024C141.697 16.088 141.798 16.1253 141.937 16.136V17C141.819 17.0107 141.718 17.0213 141.633 17.032C141.547 17.0427 141.483 17.0427 141.441 17.032C141.174 17.0213 140.971 16.936 140.833 16.776C140.694 16.616 140.619 16.4453 140.609 16.264L140.593 15.656C140.219 16.136 139.734 16.5093 139.137 16.776C138.539 17.032 137.931 17.16 137.313 17.16C136.779 17.16 136.294 17.048 135.857 16.824C135.43 16.5893 135.094 16.28 134.849 15.896C134.614 15.5013 134.497 15.0693 134.497 14.6ZM140.081 15.24C140.198 15.0907 140.289 14.9467 140.353 14.808C140.417 14.6693 140.449 14.5467 140.449 14.44V13.224C140.086 13.0853 139.707 12.9787 139.313 12.904C138.929 12.8293 138.539 12.792 138.145 12.792C137.366 12.792 136.737 12.9467 136.257 13.256C135.777 13.5653 135.537 13.9867 135.537 14.52C135.537 14.8293 135.617 15.1227 135.777 15.4C135.937 15.6667 136.171 15.8907 136.481 16.072C136.79 16.2427 137.153 16.328 137.569 16.328C138.091 16.328 138.577 16.2267 139.025 16.024C139.483 15.8213 139.835 15.56 140.081 15.24Z" fill="#E2E7E9"/>
<path d="M653.761 810V800.752L649.649 807.936H648.945L644.817 800.752V810H643.697V798.64H644.849L649.281 806.416L653.745 798.64H654.881V810H653.761ZM656.755 807.6C656.755 807.077 656.904 806.629 657.203 806.256C657.501 805.872 657.912 805.579 658.435 805.376C658.968 805.163 659.581 805.056 660.275 805.056C660.68 805.056 661.101 805.088 661.539 805.152C661.976 805.216 662.365 805.312 662.707 805.44V804.736C662.707 804.032 662.499 803.472 662.083 803.056C661.667 802.64 661.091 802.432 660.355 802.432C659.907 802.432 659.464 802.517 659.027 802.688C658.6 802.848 658.152 803.088 657.683 803.408L657.267 802.64C657.811 802.267 658.344 801.989 658.867 801.808C659.389 801.616 659.923 801.52 660.467 801.52C661.491 801.52 662.301 801.813 662.899 802.4C663.496 802.987 663.795 803.797 663.795 804.832V808.688C663.795 808.837 663.827 808.949 663.891 809.024C663.955 809.088 664.056 809.125 664.195 809.136V810C664.077 810.011 663.976 810.021 663.891 810.032C663.805 810.043 663.741 810.043 663.699 810.032C663.432 810.021 663.229 809.936 663.091 809.776C662.952 809.616 662.877 809.445 662.867 809.264L662.851 808.656C662.477 809.136 661.992 809.509 661.395 809.776C660.797 810.032 660.189 810.16 659.571 810.16C659.037 810.16 658.552 810.048 658.115 809.824C657.688 809.589 657.352 809.28 657.107 808.896C656.872 808.501 656.755 808.069 656.755 807.6ZM662.339 808.24C662.456 808.091 662.547 807.947 662.611 807.808C662.675 807.669 662.707 807.547 662.707 807.44V806.224C662.344 806.085 661.965 805.979 661.571 805.904C661.187 805.829 660.797 805.792 660.403 805.792C659.624 805.792 658.995 805.947 658.515 806.256C658.035 806.565 657.795 806.987 657.795 807.52C657.795 807.829 657.875 808.123 658.035 808.4C658.195 808.667 658.429 808.891 658.739 809.072C659.048 809.243 659.411 809.328 659.827 809.328C660.349 809.328 660.835 809.227 661.283 809.024C661.741 808.821 662.093 808.56 662.339 808.24ZM670.305 802.624C669.58 802.645 668.94 802.848 668.385 803.232C667.841 803.616 667.457 804.144 667.233 804.816V810H666.145V801.664H667.169V803.664C667.457 803.077 667.836 802.603 668.305 802.24C668.785 801.877 669.292 801.675 669.825 801.632C669.932 801.621 670.023 801.616 670.097 801.616C670.183 801.616 670.252 801.621 670.305 801.632V802.624ZM675.105 810.16C674.497 810.16 673.937 810.048 673.425 809.824C672.924 809.589 672.481 809.269 672.097 808.864C671.724 808.459 671.43 807.995 671.217 807.472C671.014 806.949 670.913 806.395 670.913 805.808C670.913 805.019 671.089 804.299 671.441 803.648C671.793 802.997 672.284 802.48 672.913 802.096C673.542 801.712 674.268 801.52 675.089 801.52C675.868 801.52 676.556 801.701 677.153 802.064C677.75 802.416 678.193 802.896 678.481 803.504L677.425 803.84C677.19 803.413 676.86 803.083 676.433 802.848C676.017 802.603 675.553 802.48 675.041 802.48C674.486 802.48 673.98 802.624 673.521 802.912C673.062 803.2 672.694 803.595 672.417 804.096C672.15 804.597 672.017 805.168 672.017 805.808C672.017 806.437 672.156 807.008 672.433 807.52C672.71 808.032 673.078 808.443 673.537 808.752C673.996 809.051 674.502 809.2 675.057 809.2C675.42 809.2 675.766 809.136 676.097 809.008C676.438 808.88 676.732 808.709 676.977 808.496C677.233 808.272 677.404 808.032 677.489 807.776L678.561 808.096C678.412 808.491 678.161 808.848 677.809 809.168C677.468 809.477 677.062 809.723 676.593 809.904C676.134 810.075 675.638 810.16 675.105 810.16ZM679.598 807.6C679.598 807.077 679.748 806.629 680.046 806.256C680.345 805.872 680.756 805.579 681.278 805.376C681.812 805.163 682.425 805.056 683.118 805.056C683.524 805.056 683.945 805.088 684.382 805.152C684.82 805.216 685.209 805.312 685.55 805.44V804.736C685.55 804.032 685.342 803.472 684.926 803.056C684.51 802.64 683.934 802.432 683.198 802.432C682.75 802.432 682.308 802.517 681.87 802.688C681.444 802.848 680.996 803.088 680.526 803.408L680.11 802.64C680.654 802.267 681.188 801.989 681.71 801.808C682.233 801.616 682.766 801.52 683.31 801.52C684.334 801.52 685.145 801.813 685.742 802.4C686.34 802.987 686.638 803.797 686.638 804.832V808.688C686.638 808.837 686.67 808.949 686.734 809.024C686.798 809.088 686.9 809.125 687.038 809.136V810C686.921 810.011 686.82 810.021 686.734 810.032C686.649 810.043 686.585 810.043 686.542 810.032C686.276 810.021 686.073 809.936 685.934 809.776C685.796 809.616 685.721 809.445 685.71 809.264L685.694 808.656C685.321 809.136 684.836 809.509 684.238 809.776C683.641 810.032 683.033 810.16 682.414 810.16C681.881 810.16 681.396 810.048 680.958 809.824C680.532 809.589 680.196 809.28 679.95 808.896C679.716 808.501 679.598 808.069 679.598 807.6ZM685.182 808.24C685.3 808.091 685.39 807.947 685.454 807.808C685.518 807.669 685.55 807.547 685.55 807.44V806.224C685.188 806.085 684.809 805.979 684.414 805.904C684.03 805.829 683.641 805.792 683.246 805.792C682.468 805.792 681.838 805.947 681.358 806.256C680.878 806.565 680.638 806.987 680.638 807.52C680.638 807.829 680.718 808.123 680.878 808.4C681.038 808.667 681.273 808.891 681.582 809.072C681.892 809.243 682.254 809.328 682.67 809.328C683.193 809.328 683.678 809.227 684.126 809.024C684.585 808.821 684.937 808.56 685.182 808.24ZM697.323 810.16C696.63 810.16 696.006 809.979 695.451 809.616C694.907 809.253 694.475 808.805 694.155 808.272V813.408H693.067V801.664H694.043V803.28C694.374 802.757 694.817 802.336 695.371 802.016C695.926 801.685 696.518 801.52 697.147 801.52C697.723 801.52 698.251 801.643 698.731 801.888C699.211 802.123 699.627 802.443 699.979 802.848C700.331 803.253 700.603 803.717 700.795 804.24C700.998 804.752 701.099 805.285 701.099 805.84C701.099 806.619 700.939 807.339 700.619 808C700.31 808.651 699.873 809.173 699.307 809.568C698.742 809.963 698.081 810.16 697.323 810.16ZM697.019 809.2C697.478 809.2 697.889 809.109 698.251 808.928C698.614 808.736 698.923 808.48 699.179 808.16C699.446 807.84 699.649 807.483 699.787 807.088C699.926 806.683 699.995 806.267 699.995 805.84C699.995 805.392 699.915 804.965 699.755 804.56C699.606 804.155 699.387 803.797 699.099 803.488C698.811 803.179 698.481 802.933 698.107 802.752C697.734 802.571 697.329 802.48 696.891 802.48C696.614 802.48 696.326 802.533 696.027 802.64C695.729 802.747 695.441 802.901 695.163 803.104C694.897 803.296 694.673 803.515 694.491 803.76C694.31 804.005 694.198 804.267 694.155 804.544V807.104C694.326 807.499 694.555 807.856 694.843 808.176C695.131 808.485 695.462 808.736 695.835 808.928C696.219 809.109 696.614 809.2 697.019 809.2ZM702.27 807.6C702.27 807.077 702.42 806.629 702.718 806.256C703.017 805.872 703.428 805.579 703.95 805.376C704.484 805.163 705.097 805.056 705.79 805.056C706.196 805.056 706.617 805.088 707.054 805.152C707.492 805.216 707.881 805.312 708.222 805.44V804.736C708.222 804.032 708.014 803.472 707.598 803.056C707.182 802.64 706.606 802.432 705.87 802.432C705.422 802.432 704.98 802.517 704.542 802.688C704.116 802.848 703.668 803.088 703.198 803.408L702.782 802.64C703.326 802.267 703.86 801.989 704.382 801.808C704.905 801.616 705.438 801.52 705.982 801.52C707.006 801.52 707.817 801.813 708.414 802.4C709.012 802.987 709.31 803.797 709.31 804.832V808.688C709.31 808.837 709.342 808.949 709.406 809.024C709.47 809.088 709.572 809.125 709.71 809.136V810C709.593 810.011 709.492 810.021 709.406 810.032C709.321 810.043 709.257 810.043 709.214 810.032C708.948 810.021 708.745 809.936 708.606 809.776C708.468 809.616 708.393 809.445 708.382 809.264L708.366 808.656C707.993 809.136 707.508 809.509 706.91 809.776C706.313 810.032 705.705 810.16 705.086 810.16C704.553 810.16 704.068 810.048 703.63 809.824C703.204 809.589 702.868 809.28 702.622 808.896C702.388 808.501 702.27 808.069 702.27 807.6ZM707.854 808.24C707.972 808.091 708.062 807.947 708.126 807.808C708.19 807.669 708.222 807.547 708.222 807.44V806.224C707.86 806.085 707.481 805.979 707.086 805.904C706.702 805.829 706.313 805.792 705.918 805.792C705.14 805.792 704.51 805.947 704.03 806.256C703.55 806.565 703.31 806.987 703.31 807.52C703.31 807.829 703.39 808.123 703.55 808.4C703.71 808.667 703.945 808.891 704.254 809.072C704.564 809.243 704.926 809.328 705.342 809.328C705.865 809.328 706.35 809.227 706.798 809.024C707.257 808.821 707.609 808.56 707.854 808.24ZM706.334 800.08L705.614 799.808L706.558 798.32H707.71L706.334 800.08ZM715.005 810.112C714.44 810.112 713.917 809.995 713.437 809.76C712.957 809.525 712.541 809.211 712.189 808.816C711.848 808.411 711.581 807.952 711.389 807.44C711.197 806.928 711.101 806.4 711.101 805.856C711.101 805.269 711.192 804.72 711.373 804.208C711.565 803.685 711.832 803.221 712.173 802.816C712.525 802.411 712.936 802.096 713.405 801.872C713.874 801.637 714.397 801.52 714.973 801.52C715.688 801.52 716.306 801.701 716.829 802.064C717.362 802.427 717.81 802.875 718.173 803.408V801.664H719.149V810.032C719.149 810.8 718.962 811.445 718.589 811.968C718.226 812.501 717.73 812.901 717.101 813.168C716.482 813.435 715.805 813.568 715.069 813.568C714.12 813.568 713.352 813.397 712.765 813.056C712.178 812.715 711.698 812.256 711.325 811.68L711.997 811.152C712.328 811.675 712.765 812.064 713.309 812.32C713.864 812.576 714.45 812.704 715.069 812.704C715.613 812.704 716.109 812.603 716.557 812.4C717.016 812.208 717.378 811.915 717.645 811.52C717.922 811.125 718.061 810.629 718.061 810.032V808.384C717.741 808.907 717.304 809.328 716.749 809.648C716.194 809.957 715.613 810.112 715.005 810.112ZM715.309 809.2C715.64 809.2 715.954 809.141 716.253 809.024C716.562 808.907 716.845 808.752 717.101 808.56C717.357 808.357 717.57 808.133 717.741 807.888C717.912 807.643 718.018 807.392 718.061 807.136V804.56C717.901 804.155 717.672 803.797 717.373 803.488C717.074 803.168 716.733 802.923 716.349 802.752C715.976 802.571 715.586 802.48 715.181 802.48C714.712 802.48 714.29 802.581 713.917 802.784C713.554 802.976 713.245 803.237 712.989 803.568C712.744 803.888 712.552 804.251 712.413 804.656C712.274 805.061 712.205 805.467 712.205 805.872C712.205 806.32 712.285 806.747 712.445 807.152C712.605 807.547 712.824 807.904 713.101 808.224C713.389 808.533 713.72 808.773 714.093 808.944C714.477 809.115 714.882 809.2 715.309 809.2ZM721.552 810V801.664H722.64V810H721.552ZM721.552 799.92V798.32H722.64V799.92H721.552ZM732.044 810H730.956V805.344C730.956 804.363 730.812 803.648 730.524 803.2C730.236 802.741 729.783 802.512 729.164 802.512C728.737 802.512 728.316 802.619 727.9 802.832C727.484 803.035 727.116 803.317 726.796 803.68C726.487 804.032 726.263 804.437 726.124 804.896V810H725.036V801.664H726.028V803.552C726.252 803.147 726.545 802.795 726.908 802.496C727.271 802.187 727.681 801.947 728.14 801.776C728.599 801.605 729.073 801.52 729.564 801.52C730.023 801.52 730.412 801.605 730.732 801.776C731.052 801.947 731.308 802.192 731.5 802.512C731.692 802.821 731.831 803.2 731.916 803.648C732.001 804.085 732.044 804.576 732.044 805.12V810ZM733.692 807.6C733.692 807.077 733.841 806.629 734.14 806.256C734.439 805.872 734.849 805.579 735.372 805.376C735.905 805.163 736.519 805.056 737.212 805.056C737.617 805.056 738.039 805.088 738.476 805.152C738.913 805.216 739.303 805.312 739.644 805.44V804.736C739.644 804.032 739.436 803.472 739.02 803.056C738.604 802.64 738.028 802.432 737.292 802.432C736.844 802.432 736.401 802.517 735.964 802.688C735.537 802.848 735.089 803.088 734.62 803.408L734.204 802.64C734.748 802.267 735.281 801.989 735.804 801.808C736.327 801.616 736.86 801.52 737.404 801.52C738.428 801.52 739.239 801.813 739.836 802.4C740.433 802.987 740.732 803.797 740.732 804.832V808.688C740.732 808.837 740.764 808.949 740.828 809.024C740.892 809.088 740.993 809.125 741.132 809.136V810C741.015 810.011 740.913 810.021 740.828 810.032C740.743 810.043 740.679 810.043 740.636 810.032C740.369 810.021 740.167 809.936 740.028 809.776C739.889 809.616 739.815 809.445 739.804 809.264L739.788 808.656C739.415 809.136 738.929 809.509 738.332 809.776C737.735 810.032 737.127 810.16 736.508 810.16C735.975 810.16 735.489 810.048 735.052 809.824C734.625 809.589 734.289 809.28 734.044 808.896C733.809 808.501 733.692 808.069 733.692 807.6ZM739.276 808.24C739.393 808.091 739.484 807.947 739.548 807.808C739.612 807.669 739.644 807.547 739.644 807.44V806.224C739.281 806.085 738.903 805.979 738.508 805.904C738.124 805.829 737.735 805.792 737.34 805.792C736.561 805.792 735.932 805.947 735.452 806.256C734.972 806.565 734.732 806.987 734.732 807.52C734.732 807.829 734.812 808.123 734.972 808.4C735.132 808.667 735.367 808.891 735.676 809.072C735.985 809.243 736.348 809.328 736.764 809.328C737.287 809.328 737.772 809.227 738.22 809.024C738.679 808.821 739.031 808.56 739.276 808.24ZM745.819 810.16C745.136 810.16 744.501 810.048 743.915 809.824C743.328 809.6 742.821 809.259 742.395 808.8L742.843 808.032C743.312 808.469 743.781 808.789 744.251 808.992C744.731 809.184 745.237 809.28 745.771 809.28C746.421 809.28 746.949 809.152 747.355 808.896C747.76 808.629 747.963 808.251 747.963 807.76C747.963 807.429 747.861 807.179 747.659 807.008C747.467 806.827 747.184 806.683 746.811 806.576C746.448 806.459 746.011 806.336 745.499 806.208C744.923 806.048 744.437 805.883 744.043 805.712C743.659 805.531 743.365 805.307 743.163 805.04C742.971 804.763 742.875 804.405 742.875 803.968C742.875 803.424 743.008 802.976 743.275 802.624C743.552 802.261 743.925 801.989 744.395 801.808C744.875 801.616 745.408 801.52 745.995 801.52C746.635 801.52 747.2 801.621 747.691 801.824C748.181 802.027 748.581 802.309 748.891 802.672L748.363 803.408C748.064 803.067 747.707 802.816 747.291 802.656C746.885 802.485 746.432 802.4 745.931 802.4C745.589 802.4 745.264 802.448 744.955 802.544C744.645 802.629 744.389 802.779 744.187 802.992C743.995 803.195 743.899 803.477 743.899 803.84C743.899 804.139 743.973 804.373 744.123 804.544C744.272 804.704 744.496 804.843 744.795 804.96C745.093 805.067 745.461 805.184 745.899 805.312C746.528 805.483 747.077 805.659 747.547 805.84C748.016 806.011 748.379 806.235 748.635 806.512C748.891 806.789 749.019 807.179 749.019 807.68C749.019 808.459 748.725 809.067 748.139 809.504C747.552 809.941 746.779 810.16 745.819 810.16ZM758.895 809.6C758.81 809.632 758.677 809.691 758.495 809.776C758.314 809.861 758.095 809.936 757.839 810C757.583 810.064 757.306 810.096 757.007 810.096C756.698 810.096 756.405 810.037 756.127 809.92C755.861 809.803 755.647 809.627 755.487 809.392C755.327 809.147 755.247 808.848 755.247 808.496V802.528H754.095V801.664H755.247V798.848H756.335V801.664H758.255V802.528H756.335V808.192C756.357 808.491 756.463 808.715 756.655 808.864C756.858 809.013 757.087 809.088 757.343 809.088C757.642 809.088 757.914 809.04 758.159 808.944C758.405 808.837 758.554 808.763 758.607 808.72L758.895 809.6ZM763.714 810.16C763.117 810.16 762.562 810.048 762.05 809.824C761.538 809.589 761.095 809.275 760.722 808.88C760.349 808.475 760.055 808.011 759.842 807.488C759.639 806.965 759.538 806.405 759.538 805.808C759.538 805.029 759.714 804.315 760.066 803.664C760.429 803.013 760.925 802.496 761.554 802.112C762.183 801.717 762.898 801.52 763.698 801.52C764.519 801.52 765.234 801.717 765.842 802.112C766.461 802.507 766.946 803.029 767.298 803.68C767.65 804.32 767.826 805.024 767.826 805.792C767.826 805.877 767.826 805.963 767.826 806.048C767.826 806.123 767.821 806.181 767.81 806.224H760.674C760.727 806.821 760.893 807.355 761.17 807.824C761.458 808.283 761.826 808.651 762.274 808.928C762.733 809.195 763.229 809.328 763.762 809.328C764.306 809.328 764.818 809.189 765.298 808.912C765.789 808.635 766.13 808.272 766.322 807.824L767.266 808.08C767.095 808.475 766.834 808.832 766.482 809.152C766.13 809.472 765.714 809.723 765.234 809.904C764.765 810.075 764.258 810.16 763.714 810.16ZM760.642 805.44H766.802C766.759 804.832 766.594 804.299 766.306 803.84C766.029 803.381 765.661 803.024 765.202 802.768C764.754 802.501 764.258 802.368 763.714 802.368C763.17 802.368 762.674 802.501 762.226 802.768C761.778 803.024 761.41 803.387 761.122 803.856C760.845 804.315 760.685 804.843 760.642 805.44ZM781.905 810H780.817V805.344C780.817 804.373 780.662 803.659 780.353 803.2C780.043 802.741 779.585 802.512 778.977 802.512C778.347 802.512 777.782 802.736 777.281 803.184C776.79 803.632 776.443 804.208 776.241 804.912V810H775.153V805.344C775.153 804.363 775.003 803.648 774.705 803.2C774.406 802.741 773.947 802.512 773.329 802.512C772.71 802.512 772.15 802.731 771.649 803.168C771.147 803.605 770.795 804.181 770.593 804.896V810H769.505V801.664H770.497V803.552C770.849 802.901 771.297 802.4 771.841 802.048C772.395 801.696 773.009 801.52 773.681 801.52C774.374 801.52 774.934 801.717 775.361 802.112C775.787 802.507 776.049 803.024 776.145 803.664C776.529 802.96 776.987 802.427 777.521 802.064C778.065 801.701 778.678 801.52 779.361 801.52C779.83 801.52 780.225 801.605 780.545 801.776C780.875 801.947 781.137 802.192 781.329 802.512C781.531 802.821 781.675 803.2 781.761 803.648C781.857 804.085 781.905 804.576 781.905 805.12V810ZM783.536 807.6C783.536 807.077 783.685 806.629 783.984 806.256C784.282 805.872 784.693 805.579 785.216 805.376C785.749 805.163 786.362 805.056 787.056 805.056C787.461 805.056 787.882 805.088 788.32 805.152C788.757 805.216 789.146 805.312 789.488 805.44V804.736C789.488 804.032 789.28 803.472 788.864 803.056C788.448 802.64 787.872 802.432 787.136 802.432C786.688 802.432 786.245 802.517 785.808 802.688C785.381 802.848 784.933 803.088 784.464 803.408L784.048 802.64C784.592 802.267 785.125 801.989 785.648 801.808C786.17 801.616 786.704 801.52 787.248 801.52C788.272 801.52 789.082 801.813 789.68 802.4C790.277 802.987 790.576 803.797 790.576 804.832V808.688C790.576 808.837 790.608 808.949 790.672 809.024C790.736 809.088 790.837 809.125 790.976 809.136V810C790.858 810.011 790.757 810.021 790.672 810.032C790.586 810.043 790.522 810.043 790.48 810.032C790.213 810.021 790.01 809.936 789.872 809.776C789.733 809.616 789.658 809.445 789.648 809.264L789.632 808.656C789.258 809.136 788.773 809.509 788.176 809.776C787.578 810.032 786.97 810.16 786.352 810.16C785.818 810.16 785.333 810.048 784.896 809.824C784.469 809.589 784.133 809.28 783.888 808.896C783.653 808.501 783.536 808.069 783.536 807.6ZM789.12 808.24C789.237 808.091 789.328 807.947 789.392 807.808C789.456 807.669 789.488 807.547 789.488 807.44V806.224C789.125 806.085 788.746 805.979 788.352 805.904C787.968 805.829 787.578 805.792 787.184 805.792C786.405 805.792 785.776 805.947 785.296 806.256C784.816 806.565 784.576 806.987 784.576 807.52C784.576 807.829 784.656 808.123 784.816 808.4C784.976 808.667 785.21 808.891 785.52 809.072C785.829 809.243 786.192 809.328 786.608 809.328C787.13 809.328 787.616 809.227 788.064 809.024C788.522 808.821 788.874 808.56 789.12 808.24ZM787.6 800.08L786.88 799.808L787.824 798.32H788.976L787.6 800.08ZM796.864 809.6C796.779 809.632 796.645 809.691 796.464 809.776C796.283 809.861 796.064 809.936 795.808 810C795.552 810.064 795.275 810.096 794.976 810.096C794.667 810.096 794.373 810.037 794.096 809.92C793.829 809.803 793.616 809.627 793.456 809.392C793.296 809.147 793.216 808.848 793.216 808.496V802.528H792.064V801.664H793.216V798.848H794.304V801.664H796.224V802.528H794.304V808.192C794.325 808.491 794.432 808.715 794.624 808.864C794.827 809.013 795.056 809.088 795.312 809.088C795.611 809.088 795.883 809.04 796.128 808.944C796.373 808.837 796.523 808.763 796.576 808.72L796.864 809.6ZM798.223 810V801.664H799.311V810H798.223ZM798.223 799.92V798.32H799.311V799.92H798.223ZM805.324 810.16C804.716 810.16 804.156 810.048 803.644 809.824C803.142 809.589 802.7 809.269 802.316 808.864C801.942 808.459 801.649 807.995 801.436 807.472C801.233 806.949 801.132 806.395 801.132 805.808C801.132 805.019 801.308 804.299 801.66 803.648C802.012 802.997 802.502 802.48 803.132 802.096C803.761 801.712 804.486 801.52 805.308 801.52C806.086 801.52 806.774 801.701 807.372 802.064C807.969 802.416 808.412 802.896 808.7 803.504L807.644 803.84C807.409 803.413 807.078 803.083 806.652 802.848C806.236 802.603 805.772 802.48 805.26 802.48C804.705 802.48 804.198 802.624 803.74 802.912C803.281 803.2 802.913 803.595 802.636 804.096C802.369 804.597 802.236 805.168 802.236 805.808C802.236 806.437 802.374 807.008 802.652 807.52C802.929 808.032 803.297 808.443 803.756 808.752C804.214 809.051 804.721 809.2 805.276 809.2C805.638 809.2 805.985 809.136 806.316 809.008C806.657 808.88 806.95 808.709 807.196 808.496C807.452 808.272 807.622 808.032 807.708 807.776L808.78 808.096C808.63 808.491 808.38 808.848 808.028 809.168C807.686 809.477 807.281 809.723 806.812 809.904C806.353 810.075 805.857 810.16 805.324 810.16ZM813.963 810.16C813.366 810.16 812.811 810.048 812.299 809.824C811.798 809.589 811.36 809.275 810.987 808.88C810.624 808.475 810.342 808.016 810.139 807.504C809.936 806.981 809.835 806.432 809.835 805.856C809.835 805.259 809.936 804.704 810.139 804.192C810.342 803.669 810.63 803.211 811.003 802.816C811.376 802.411 811.814 802.096 812.315 801.872C812.827 801.637 813.382 801.52 813.979 801.52C814.576 801.52 815.126 801.637 815.627 801.872C816.128 802.096 816.566 802.411 816.939 802.816C817.312 803.211 817.6 803.669 817.803 804.192C818.006 804.704 818.107 805.259 818.107 805.856C818.107 806.432 818.006 806.981 817.803 807.504C817.6 808.016 817.312 808.475 816.939 808.88C816.576 809.275 816.139 809.589 815.627 809.824C815.126 810.048 814.571 810.16 813.963 810.16ZM810.939 805.872C810.939 806.491 811.072 807.056 811.339 807.568C811.616 808.069 811.984 808.469 812.443 808.768C812.902 809.056 813.408 809.2 813.963 809.2C814.518 809.2 815.024 809.051 815.483 808.752C815.942 808.453 816.31 808.048 816.587 807.536C816.864 807.013 817.003 806.448 817.003 805.84C817.003 805.221 816.864 804.656 816.587 804.144C816.31 803.632 815.942 803.227 815.483 802.928C815.024 802.629 814.518 802.48 813.963 802.48C813.408 802.48 812.902 802.635 812.443 802.944C811.995 803.253 811.632 803.664 811.355 804.176C811.078 804.677 810.939 805.243 810.939 805.872Z" fill="#E2E7E9"/>
<path d="M849.05 623.165C848.589 622.861 847.969 622.989 847.665 623.45C847.361 623.911 847.489 624.531 847.95 624.835L849.05 623.165ZM730.855 776.264C731.277 776.62 731.908 776.567 732.264 776.145L738.069 769.267C738.425 768.845 738.372 768.214 737.95 767.858C737.527 767.501 736.897 767.555 736.54 767.977L731.381 774.091L725.267 768.931C724.845 768.575 724.214 768.629 723.858 769.051C723.502 769.473 723.555 770.104 723.977 770.46L730.855 776.264ZM847.95 624.835C861.292 633.626 869.213 641.024 873.006 647.387C874.893 650.552 875.737 653.426 875.75 656.068C875.764 658.703 874.951 661.187 873.396 663.58C870.255 668.414 864.131 672.815 855.928 677.114C847.754 681.398 837.669 685.505 826.757 689.82C804.989 698.428 779.954 707.847 760.884 721.053C741.784 734.28 728.461 751.454 730.504 775.584L732.497 775.416C730.539 752.296 743.216 735.72 762.023 722.697C780.859 709.653 805.636 700.322 827.493 691.68C838.394 687.37 848.574 683.227 856.857 678.886C865.111 674.56 871.635 669.961 875.073 664.67C876.807 662.001 877.766 659.141 877.75 656.057C877.735 652.981 876.749 649.76 874.724 646.363C870.693 639.601 862.458 631.999 849.05 623.165L847.95 624.835Z" fill="#7D298A"/>
<path d="M27.2258 399.072C27.2258 399.637 27.0818 400.144 26.7938 400.592C26.5058 401.029 26.1165 401.376 25.6258 401.632C25.1458 401.877 24.6178 402 24.0418 402H18.6818V390.64H24.1538C24.6871 390.64 25.1458 390.784 25.5298 391.072C25.9245 391.349 26.2231 391.712 26.4258 392.16C26.6391 392.597 26.7458 393.056 26.7458 393.536C26.7458 394.101 26.6018 394.624 26.3138 395.104C26.0258 395.584 25.6258 395.941 25.1138 396.176C25.7645 396.368 26.2765 396.725 26.6498 397.248C27.0338 397.771 27.2258 398.379 27.2258 399.072ZM26.1058 398.88C26.1058 398.496 26.0205 398.144 25.8498 397.824C25.6791 397.493 25.4445 397.227 25.1458 397.024C24.8578 396.821 24.5271 396.72 24.1538 396.72H19.8018V401.024H24.0418C24.4258 401.024 24.7725 400.923 25.0818 400.72C25.3911 400.517 25.6365 400.256 25.8178 399.936C26.0098 399.605 26.1058 399.253 26.1058 398.88ZM19.8018 391.616V395.808H23.7058C24.0791 395.808 24.4098 395.712 24.6978 395.52C24.9858 395.317 25.2151 395.056 25.3858 394.736C25.5565 394.416 25.6418 394.075 25.6418 393.712C25.6418 393.328 25.5618 392.981 25.4018 392.672C25.2418 392.352 25.0231 392.096 24.7458 391.904C24.4685 391.712 24.1538 391.616 23.8018 391.616H19.8018ZM33.2741 394.624C32.5487 394.645 31.9087 394.848 31.3541 395.232C30.8101 395.616 30.4261 396.144 30.2021 396.816V402H29.1141V393.664H30.1381V395.664C30.4261 395.077 30.8047 394.603 31.2741 394.24C31.7541 393.877 32.2607 393.675 32.7941 393.632C32.9007 393.621 32.9914 393.616 33.0661 393.616C33.1514 393.616 33.2207 393.621 33.2741 393.632V394.624ZM38.0098 402.16C37.4125 402.16 36.8578 402.048 36.3458 401.824C35.8445 401.589 35.4071 401.275 35.0338 400.88C34.6711 400.475 34.3885 400.016 34.1858 399.504C33.9831 398.981 33.8818 398.432 33.8818 397.856C33.8818 397.259 33.9831 396.704 34.1858 396.192C34.3885 395.669 34.6765 395.211 35.0498 394.816C35.4231 394.411 35.8605 394.096 36.3618 393.872C36.8738 393.637 37.4285 393.52 38.0258 393.52C38.6231 393.52 39.1725 393.637 39.6738 393.872C40.1751 394.096 40.6125 394.411 40.9858 394.816C41.3591 395.211 41.6471 395.669 41.8498 396.192C42.0525 396.704 42.1538 397.259 42.1538 397.856C42.1538 398.432 42.0525 398.981 41.8498 399.504C41.6471 400.016 41.3591 400.475 40.9858 400.88C40.6231 401.275 40.1858 401.589 39.6738 401.824C39.1725 402.048 38.6178 402.16 38.0098 402.16ZM34.9858 397.872C34.9858 398.491 35.1191 399.056 35.3858 399.568C35.6631 400.069 36.0311 400.469 36.4898 400.768C36.9485 401.056 37.4551 401.2 38.0098 401.2C38.5645 401.2 39.0711 401.051 39.5298 400.752C39.9885 400.453 40.3565 400.048 40.6338 399.536C40.9111 399.013 41.0498 398.448 41.0498 397.84C41.0498 397.221 40.9111 396.656 40.6338 396.144C40.3565 395.632 39.9885 395.227 39.5298 394.928C39.0711 394.629 38.5645 394.48 38.0098 394.48C37.4551 394.48 36.9485 394.635 36.4898 394.944C36.0418 395.253 35.6791 395.664 35.4018 396.176C35.1245 396.677 34.9858 397.243 34.9858 397.872ZM47.5894 402.16C46.9814 402.16 46.4214 402.048 45.9094 401.824C45.4081 401.589 44.9654 401.269 44.5814 400.864C44.2081 400.459 43.9148 399.995 43.7014 399.472C43.4988 398.949 43.3974 398.395 43.3974 397.808C43.3974 397.019 43.5734 396.299 43.9254 395.648C44.2774 394.997 44.7681 394.48 45.3974 394.096C46.0268 393.712 46.7521 393.52 47.5734 393.52C48.3521 393.52 49.0401 393.701 49.6374 394.064C50.2348 394.416 50.6774 394.896 50.9654 395.504L49.9094 395.84C49.6748 395.413 49.3441 395.083 48.9174 394.848C48.5014 394.603 48.0374 394.48 47.5254 394.48C46.9708 394.48 46.4641 394.624 46.0054 394.912C45.5468 395.2 45.1788 395.595 44.9014 396.096C44.6348 396.597 44.5014 397.168 44.5014 397.808C44.5014 398.437 44.6401 399.008 44.9174 399.52C45.1948 400.032 45.5628 400.443 46.0214 400.752C46.4801 401.051 46.9868 401.2 47.5414 401.2C47.9041 401.2 48.2508 401.136 48.5814 401.008C48.9228 400.88 49.2161 400.709 49.4614 400.496C49.7174 400.272 49.8881 400.032 49.9734 399.776L51.0454 400.096C50.8961 400.491 50.6454 400.848 50.2934 401.168C49.9521 401.477 49.5468 401.723 49.0774 401.904C48.6188 402.075 48.1228 402.16 47.5894 402.16ZM59.7627 402H58.6747V397.344C58.6747 396.405 58.5094 395.701 58.1787 395.232C57.848 394.752 57.3734 394.512 56.7547 394.512C56.3494 394.512 55.944 394.619 55.5387 394.832C55.144 395.035 54.792 395.317 54.4827 395.68C54.184 396.032 53.9707 396.437 53.8427 396.896V402H52.7547V390.32H53.8427V395.552C54.1734 394.933 54.632 394.443 55.2187 394.08C55.816 393.707 56.4507 393.52 57.1227 393.52C57.6027 393.52 58.008 393.605 58.3387 393.776C58.68 393.947 58.952 394.197 59.1547 394.528C59.368 394.848 59.5227 395.227 59.6187 395.664C59.7147 396.091 59.7627 396.576 59.7627 397.12V402ZM65.6828 402.16C65.0855 402.16 64.5308 402.048 64.0188 401.824C63.5068 401.589 63.0641 401.275 62.6908 400.88C62.3175 400.475 62.0241 400.011 61.8108 399.488C61.6081 398.965 61.5068 398.405 61.5068 397.808C61.5068 397.029 61.6828 396.315 62.0348 395.664C62.3975 395.013 62.8935 394.496 63.5228 394.112C64.1521 393.717 64.8668 393.52 65.6668 393.52C66.4881 393.52 67.2028 393.717 67.8108 394.112C68.4295 394.507 68.9148 395.029 69.2668 395.68C69.6188 396.32 69.7948 397.024 69.7948 397.792C69.7948 397.877 69.7948 397.963 69.7948 398.048C69.7948 398.123 69.7895 398.181 69.7788 398.224H62.6428C62.6961 398.821 62.8615 399.355 63.1388 399.824C63.4268 400.283 63.7948 400.651 64.2428 400.928C64.7015 401.195 65.1975 401.328 65.7308 401.328C66.2748 401.328 66.7868 401.189 67.2668 400.912C67.7575 400.635 68.0988 400.272 68.2908 399.824L69.2348 400.08C69.0641 400.475 68.8028 400.832 68.4508 401.152C68.0988 401.472 67.6828 401.723 67.2028 401.904C66.7335 402.075 66.2268 402.16 65.6828 402.16ZM62.6108 397.44H68.7708C68.7281 396.832 68.5628 396.299 68.2748 395.84C67.9975 395.381 67.6295 395.024 67.1708 394.768C66.7228 394.501 66.2268 394.368 65.6828 394.368C65.1388 394.368 64.6428 394.501 64.1948 394.768C63.7468 395.024 63.3788 395.387 63.0908 395.856C62.8135 396.315 62.6535 396.843 62.6108 397.44ZM79.1516 402.16C78.5542 402.16 77.9996 402.048 77.4876 401.824C76.9756 401.589 76.5329 401.275 76.1596 400.88C75.7862 400.475 75.4929 400.011 75.2796 399.488C75.0769 398.965 74.9756 398.405 74.9756 397.808C74.9756 397.029 75.1516 396.315 75.5036 395.664C75.8662 395.013 76.3622 394.496 76.9916 394.112C77.6209 393.717 78.3356 393.52 79.1356 393.52C79.9569 393.52 80.6716 393.717 81.2796 394.112C81.8982 394.507 82.3836 395.029 82.7356 395.68C83.0876 396.32 83.2636 397.024 83.2636 397.792C83.2636 397.877 83.2636 397.963 83.2636 398.048C83.2636 398.123 83.2582 398.181 83.2476 398.224H76.1116C76.1649 398.821 76.3302 399.355 76.6076 399.824C76.8956 400.283 77.2636 400.651 77.7116 400.928C78.1702 401.195 78.6662 401.328 79.1996 401.328C79.7436 401.328 80.2556 401.189 80.7356 400.912C81.2262 400.635 81.5676 400.272 81.7596 399.824L82.7036 400.08C82.5329 400.475 82.2716 400.832 81.9196 401.152C81.5676 401.472 81.1516 401.723 80.6716 401.904C80.2022 402.075 79.6956 402.16 79.1516 402.16ZM76.0796 397.44H82.2396C82.1969 396.832 82.0316 396.299 81.7436 395.84C81.4662 395.381 81.0982 395.024 80.6396 394.768C80.1916 394.501 79.6956 394.368 79.1516 394.368C78.6076 394.368 78.1116 394.501 77.6636 394.768C77.2156 395.024 76.8476 395.387 76.5596 395.856C76.2822 396.315 76.1222 396.843 76.0796 397.44ZM84.8857 393.664L87.3337 396.928L87.4617 397.168L87.5897 396.928L90.0217 393.664H91.2537L88.0857 397.856L91.2537 402H90.0217L87.5897 398.752L87.4617 398.528L87.3337 398.752L84.9017 402H83.6697L86.8217 397.856L83.6697 393.664H84.8857ZM95.9332 402.16C95.3252 402.16 94.7652 402.048 94.2532 401.824C93.7519 401.589 93.3092 401.269 92.9252 400.864C92.5519 400.459 92.2585 399.995 92.0452 399.472C91.8425 398.949 91.7412 398.395 91.7412 397.808C91.7412 397.019 91.9172 396.299 92.2692 395.648C92.6212 394.997 93.1119 394.48 93.7412 394.096C94.3705 393.712 95.0959 393.52 95.9172 393.52C96.6959 393.52 97.3839 393.701 97.9812 394.064C98.5785 394.416 99.0212 394.896 99.3092 395.504L98.2532 395.84C98.0185 395.413 97.6879 395.083 97.2612 394.848C96.8452 394.603 96.3812 394.48 95.8692 394.48C95.3145 394.48 94.8079 394.624 94.3492 394.912C93.8905 395.2 93.5225 395.595 93.2452 396.096C92.9785 396.597 92.8452 397.168 92.8452 397.808C92.8452 398.437 92.9839 399.008 93.2612 399.52C93.5385 400.032 93.9065 400.443 94.3652 400.752C94.8239 401.051 95.3305 401.2 95.8852 401.2C96.2479 401.2 96.5945 401.136 96.9252 401.008C97.2665 400.88 97.5599 400.709 97.8052 400.496C98.0612 400.272 98.2319 400.032 98.3172 399.776L99.3892 400.096C99.2399 400.491 98.9892 400.848 98.6372 401.168C98.2959 401.477 97.8905 401.723 97.4212 401.904C96.9625 402.075 96.4665 402.16 95.9332 402.16ZM101.146 390.32H102.234V400.112C102.234 400.528 102.309 400.8 102.458 400.928C102.608 401.056 102.789 401.12 103.002 401.12C103.194 401.12 103.386 401.099 103.578 401.056C103.77 401.013 103.936 400.971 104.074 400.928L104.266 401.808C104.064 401.893 103.813 401.963 103.514 402.016C103.226 402.069 102.976 402.096 102.762 402.096C102.272 402.096 101.877 401.952 101.578 401.664C101.29 401.376 101.146 400.981 101.146 400.48V390.32ZM105.378 398.56V393.664H106.466V398.368C106.466 399.317 106.626 400.027 106.946 400.496C107.276 400.965 107.762 401.2 108.402 401.2C108.828 401.2 109.239 401.109 109.634 400.928C110.039 400.736 110.396 400.469 110.706 400.128C111.015 399.776 111.25 399.371 111.41 398.912V393.664H112.498V400.688C112.498 400.837 112.53 400.949 112.594 401.024C112.658 401.088 112.754 401.125 112.882 401.136V402C112.754 402.011 112.652 402.016 112.578 402.016C112.503 402.027 112.434 402.032 112.37 402.032C112.156 402.011 111.97 401.925 111.81 401.776C111.66 401.627 111.58 401.445 111.57 401.232L111.538 400.112C111.175 400.752 110.679 401.253 110.05 401.616C109.431 401.979 108.759 402.16 108.034 402.16C107.159 402.16 106.498 401.856 106.05 401.248C105.602 400.64 105.378 399.744 105.378 398.56ZM117.694 402.16C117.011 402.16 116.376 402.048 115.79 401.824C115.203 401.6 114.696 401.259 114.27 400.8L114.718 400.032C115.187 400.469 115.656 400.789 116.126 400.992C116.606 401.184 117.112 401.28 117.646 401.28C118.296 401.28 118.824 401.152 119.23 400.896C119.635 400.629 119.838 400.251 119.838 399.76C119.838 399.429 119.736 399.179 119.534 399.008C119.342 398.827 119.059 398.683 118.686 398.576C118.323 398.459 117.886 398.336 117.374 398.208C116.798 398.048 116.312 397.883 115.918 397.712C115.534 397.531 115.24 397.307 115.038 397.04C114.846 396.763 114.75 396.405 114.75 395.968C114.75 395.424 114.883 394.976 115.15 394.624C115.427 394.261 115.8 393.989 116.27 393.808C116.75 393.616 117.283 393.52 117.87 393.52C118.51 393.52 119.075 393.621 119.566 393.824C120.056 394.027 120.456 394.309 120.766 394.672L120.238 395.408C119.939 395.067 119.582 394.816 119.166 394.656C118.76 394.485 118.307 394.4 117.806 394.4C117.464 394.4 117.139 394.448 116.83 394.544C116.52 394.629 116.264 394.779 116.062 394.992C115.87 395.195 115.774 395.477 115.774 395.84C115.774 396.139 115.848 396.373 115.998 396.544C116.147 396.704 116.371 396.843 116.67 396.96C116.968 397.067 117.336 397.184 117.774 397.312C118.403 397.483 118.952 397.659 119.422 397.84C119.891 398.011 120.254 398.235 120.51 398.512C120.766 398.789 120.894 399.179 120.894 399.68C120.894 400.459 120.6 401.067 120.014 401.504C119.427 401.941 118.654 402.16 117.694 402.16ZM122.692 402V393.664H123.78V402H122.692ZM122.692 391.92V390.32H123.78V391.92H122.692ZM128.657 402L125.281 393.664H126.417L129.265 400.912L132.129 393.664H133.201L129.825 402H128.657ZM137.979 402.16C137.381 402.16 136.827 402.048 136.315 401.824C135.813 401.589 135.376 401.275 135.003 400.88C134.64 400.475 134.357 400.016 134.155 399.504C133.952 398.981 133.851 398.432 133.851 397.856C133.851 397.259 133.952 396.704 134.155 396.192C134.357 395.669 134.645 395.211 135.019 394.816C135.392 394.411 135.829 394.096 136.331 393.872C136.843 393.637 137.397 393.52 137.995 393.52C138.592 393.52 139.141 393.637 139.643 393.872C140.144 394.096 140.581 394.411 140.955 394.816C141.328 395.211 141.616 395.669 141.819 396.192C142.021 396.704 142.123 397.259 142.123 397.856C142.123 398.432 142.021 398.981 141.819 399.504C141.616 400.016 141.328 400.475 140.955 400.88C140.592 401.275 140.155 401.589 139.643 401.824C139.141 402.048 138.587 402.16 137.979 402.16ZM134.955 397.872C134.955 398.491 135.088 399.056 135.355 399.568C135.632 400.069 136 400.469 136.459 400.768C136.917 401.056 137.424 401.2 137.979 401.2C138.533 401.2 139.04 401.051 139.499 400.752C139.957 400.453 140.325 400.048 140.603 399.536C140.88 399.013 141.019 398.448 141.019 397.84C141.019 397.221 140.88 396.656 140.603 396.144C140.325 395.632 139.957 395.227 139.499 394.928C139.04 394.629 138.533 394.48 137.979 394.48C137.424 394.48 136.917 394.635 136.459 394.944C136.011 395.253 135.648 395.664 135.371 396.176C135.093 396.677 134.955 397.243 134.955 397.872Z" fill="#E2E7E9"/>
<path d="M137.537 557.269C137.685 557.801 138.237 558.112 138.769 557.963C139.301 557.815 139.612 557.263 139.463 556.731L137.537 557.269ZM33.9997 510L33.0186 510.193L33.9997 510ZM83.2047 429.021C82.6641 428.908 82.1341 429.255 82.021 429.795L80.1772 438.604C80.0641 439.145 80.4106 439.675 80.9512 439.788C81.4917 439.901 82.0217 439.555 82.1348 439.014L83.7737 431.184L91.604 432.823C92.1446 432.936 92.6745 432.589 92.7877 432.049C92.9008 431.508 92.5543 430.978 92.0138 430.865L83.2047 429.021ZM139.463 556.731C136.385 545.701 127.741 535.01 116.769 525.759C105.778 516.492 92.3461 508.582 79.5152 503.142C66.7139 497.714 54.3823 494.689 45.6151 495.323C41.2321 495.64 37.5758 496.884 35.2553 499.383C32.8971 501.922 32.1032 505.551 33.0186 510.193L34.9809 509.807C34.1463 505.574 34.9305 502.672 36.7208 500.744C38.5487 498.776 41.6111 497.618 45.7594 497.318C54.0547 496.718 66.0356 499.599 78.7344 504.983C91.4034 510.355 104.659 518.164 115.48 527.288C126.321 536.428 134.615 546.799 137.537 557.269L139.463 556.731ZM33.0186 510.193C33.7216 513.758 35.7214 516.064 38.6361 517.103C41.4721 518.114 45.0407 517.88 48.8844 516.742C56.5895 514.46 65.8862 508.402 73.8988 499.939C89.9199 483.017 101.196 456.003 83.8368 429.453L82.1628 430.547C98.8031 455.997 88.1434 481.985 72.4464 498.564C64.5999 506.851 55.5921 512.669 48.3164 514.824C44.6698 515.904 41.579 516.029 39.3077 515.219C37.1151 514.438 35.5598 512.743 34.9809 509.807L33.0186 510.193Z" fill="#7D298A"/>
<path d="M253.631 75.9944C253.904 76.4745 254.514 76.6423 254.994 76.3692C255.474 76.0962 255.642 75.4856 255.369 75.0056L253.631 75.9944ZM80.3162 44.5513C79.7923 44.3767 79.226 44.6598 79.0513 45.1838L76.2053 53.7219C76.0306 54.2459 76.3138 54.8122 76.8377 54.9868C77.3617 55.1615 77.928 54.8783 78.1026 54.3544L80.6325 46.7649L88.2219 49.2947C88.7459 49.4694 89.3122 49.1862 89.4868 48.6623C89.6615 48.1383 89.3783 47.572 88.8544 47.3974L80.3162 44.5513ZM255.369 75.0056C251.393 68.0154 246.188 63.458 240.046 60.726C233.923 58.0025 226.929 57.1187 219.397 57.3678C204.378 57.8645 186.904 62.8915 169.447 67.2169C151.902 71.5641 134.341 75.2151 118.857 73.1727C103.475 71.1437 90.114 63.4919 80.8944 45.0528L79.1056 45.9472C88.636 65.0081 102.587 73.0438 118.596 75.1555C134.503 77.2538 152.411 73.4985 169.928 69.1582C187.533 64.7962 204.716 59.8544 219.463 59.3667C226.813 59.1236 233.479 59.9937 239.233 62.5534C244.969 65.1046 249.857 69.3597 253.631 75.9944L255.369 75.0056Z" fill="#7D298A"/>
</svg>
