<svg width="12" height="12" viewBox="0 0 12 12" fill="none" xmlns="http://www.w3.org/2000/svg">
<path d="M5.97523 0.437831C6.19114 0.326825 6.43625 0.285669 6.67662 0.320061C6.91699 0.354454 7.14073 0.462694 7.31684 0.62979C7.4949 0.802492 7.6172 1.02416 7.66712 1.26746L7.95043 2.86697C8.02441 3.26831 8.19074 3.64697 8.43629 3.97307C8.68183 4.29916 8.99986 4.56374 9.36526 4.74593L10.8453 5.46513C11.0629 5.58029 11.2389 5.76078 11.3484 5.98115C11.4579 6.20153 11.4955 6.45068 11.4559 6.69351C11.4162 6.93634 11.3013 7.1606 11.1274 7.33469C10.9534 7.50878 10.7292 7.62393 10.4863 7.66391L8.88347 7.94757C8.48172 8.02126 8.10264 8.18733 7.77619 8.43265C7.44974 8.67796 7.18487 8.99581 7.00251 9.36106L6.28137 10.8365C6.16822 11.0528 5.9904 11.2286 5.77264 11.3393C5.55487 11.4499 5.308 11.49 5.06635 11.4539C4.82471 11.4179 4.60032 11.3074 4.42439 11.1379C4.24846 10.9685 4.12975 10.7484 4.08476 10.5084L3.79454 8.87727C3.71908 8.48626 3.55586 8.11744 3.31714 7.79858C3.07843 7.47972 2.77046 7.21912 2.41641 7.03641L0.93698 6.32071C0.720554 6.20744 0.544774 6.02964 0.434043 5.812C0.323313 5.59436 0.283127 5.34767 0.319064 5.10619C0.355001 4.86471 0.465279 4.64042 0.634586 4.46445C0.803894 4.28848 1.02383 4.16957 1.26386 4.12422L2.8651 3.84375C3.26885 3.77004 3.64962 3.60264 3.97681 3.35504C4.30399 3.10744 4.56845 2.78655 4.74891 2.41817L5.47052 0.939432C5.58271 0.72346 5.75963 0.548393 5.97523 0.437831Z" fill="#9547A5"/>
</svg>
