<svg width="26" height="26" viewBox="0 0 26 26" fill="none" xmlns="http://www.w3.org/2000/svg">
<path d="M9.64015 0.755198C10.0491 0.371042 10.5674 0.123458 11.1234 0.0467384C11.6793 -0.0299808 12.2453 0.0679605 12.743 0.326997C13.2486 0.597248 13.6615 1.0118 13.9274 1.52052L15.5758 4.8936C15.9959 5.7381 16.6066 6.4734 17.3599 7.04143C18.1131 7.60947 18.9882 7.99469 19.9161 8.16667L23.6624 8.8216C24.2192 8.93884 24.7251 9.22772 25.1088 9.64754C25.4925 10.0674 25.7348 10.5969 25.8014 11.1617C25.868 11.7264 25.7556 12.2978 25.4801 12.7954C25.2045 13.293 24.7797 13.6917 24.2655 13.9352L20.8853 15.5865C20.0397 16.0062 19.3033 16.6166 18.7343 17.3696C18.1653 18.1225 17.7794 18.9974 17.6069 19.925L16.9447 23.6622C16.8312 24.2151 16.5481 24.7188 16.1348 25.1034C15.7215 25.488 15.1986 25.7343 14.6387 25.8081C14.0789 25.8819 13.51 25.7794 13.0112 25.515C12.5124 25.2506 12.1085 24.8374 11.8556 24.3328L10.1717 20.8939C9.75501 20.0732 9.15743 19.3578 8.42396 18.8015C7.6905 18.2452 6.84027 17.8624 5.9373 17.6821L2.1946 17.0345C1.64162 16.9207 1.13783 16.6377 0.75318 16.2247C0.368529 15.8117 0.1221 15.2893 0.0481056 14.7299C-0.0258885 14.1705 0.0762236 13.602 0.340266 13.1032C0.604307 12.6044 1.01718 12.2001 1.52156 11.9464L4.90028 10.3033C5.75029 9.88228 6.4896 9.26782 7.05876 8.50931C7.62791 7.75079 8.01102 6.8694 8.17726 5.93603L8.8384 2.19111C8.95007 1.63982 9.2316 1.13817 9.64015 0.755198Z" fill="#9547A5"/>
</svg>
